<svg width="50" height="42" viewBox="0 0 50 42" fill="none" xmlns="http://www.w3.org/2000/svg">
<path d="M27.4502 13.7363C27.4502 13.7363 27.4502 18.377 27.4502 27.6582C27.4502 32.0879 26.3076 35.542 24.0225 38.0205C21.7373 40.4814 18.5469 41.7119 14.4512 41.7119C9.54688 41.7119 5.82031 40.0156 3.27148 36.623C1.58398 34.3379 0.740234 31.3496 0.740234 27.6582V14.1055C0.740234 9.9043 1.94434 6.57324 4.35254 4.1123C6.76074 1.63379 10.0127 0.394531 14.1084 0.394531C18.1514 0.394531 21.3857 1.60742 23.8115 4.0332C26.2373 6.45898 27.4502 9.69336 27.4502 13.7363ZM7.91211 14.1055V27.4473C7.91211 29.9258 8.44824 31.8242 9.52051 33.1426C10.6104 34.4609 12.1836 35.1201 14.2402 35.1201C18.2656 35.1201 20.2783 32.6152 20.2783 27.6055V14.1055C20.2783 11.8203 19.7422 10.0625 18.6699 8.83203C17.6152 7.60156 16.1123 6.98633 14.1611 6.98633C12.2275 6.98633 10.6982 7.61914 9.57324 8.88477C8.46582 10.1504 7.91211 11.8906 7.91211 14.1055ZM42.0576 41C42.0576 41 42.0576 29.9521 42.0576 7.85645C42.0576 7.85645 40.3877 7.85645 37.0479 7.85645C37.0479 7.85645 37.0479 5.60645 37.0479 1.10645C37.0479 1.10645 41.1172 1.10645 49.2559 1.10645C49.2559 1.10645 49.2559 14.4043 49.2559 41C49.2559 41 46.8564 41 42.0576 41Z" fill="#C53535"/>
</svg>
