<svg width="58" height="42" viewBox="0 0 58 42" fill="none" xmlns="http://www.w3.org/2000/svg">
<path d="M27.4502 13.7363C27.4502 13.7363 27.4502 18.377 27.4502 27.6582C27.4502 32.0879 26.3076 35.542 24.0225 38.0205C21.7373 40.4814 18.5469 41.7119 14.4512 41.7119C9.54688 41.7119 5.82031 40.0156 3.27148 36.623C1.58398 34.3379 0.740234 31.3496 0.740234 27.6582V14.1055C0.740234 9.9043 1.94434 6.57324 4.35254 4.1123C6.76074 1.63379 10.0127 0.394531 14.1084 0.394531C18.1514 0.394531 21.3857 1.60742 23.8115 4.0332C26.2373 6.45898 27.4502 9.69336 27.4502 13.7363ZM7.91211 14.1055V27.4473C7.91211 29.9258 8.44824 31.8242 9.52051 33.1426C10.6104 34.4609 12.1836 35.1201 14.2402 35.1201C18.2656 35.1201 20.2783 32.6152 20.2783 27.6055V14.1055C20.2783 11.8203 19.7422 10.0625 18.6699 8.83203C17.6152 7.60156 16.1123 6.98633 14.1611 6.98633C12.2275 6.98633 10.6982 7.61914 9.57324 8.88477C8.46582 10.1504 7.91211 11.8906 7.91211 14.1055ZM31.4316 41C31.4316 41 31.4316 38.8906 31.4316 34.6719C31.4316 34.6719 36.1689 30.1895 45.6436 21.2246C47.2783 19.6953 48.4473 18.3066 49.1504 17.0586C49.8711 15.8105 50.2314 14.5361 50.2314 13.2354C50.2314 11.46 49.6777 9.97461 48.5703 8.7793C47.4805 7.58398 46.1094 6.98633 44.457 6.98633C42.5938 6.98633 41.0908 7.70703 39.9482 9.14844C38.8057 10.5898 38.2344 12.4971 38.2344 14.8701H31.168C31.168 12.8838 31.3438 11.2139 31.6953 9.86035C32.0469 8.48926 32.627 7.18848 33.4355 5.95801C34.5957 4.21777 36.1426 2.85547 38.0762 1.87109C40.0098 0.886719 42.1104 0.394531 44.3779 0.394531C48.1045 0.394531 51.207 1.625 53.6855 4.08594C56.1641 6.54688 57.4033 9.63184 57.4033 13.3408C57.4033 15.7842 56.8408 17.9814 55.7158 19.9326C54.6084 21.8838 52.5957 24.1865 49.6777 26.8408L41.5303 34.25H57.2451V41H31.4316Z" fill="#C53535"/>
</svg>
