<svg width="58" height="42" viewBox="0 0 58 42" fill="none" xmlns="http://www.w3.org/2000/svg">
<path d="M27.4502 13.7363C27.4502 13.7363 27.4502 18.377 27.4502 27.6582C27.4502 32.0879 26.3076 35.542 24.0225 38.0205C21.7373 40.4814 18.5469 41.7119 14.4512 41.7119C9.54688 41.7119 5.82031 40.0156 3.27148 36.623C1.58398 34.3379 0.740234 31.3496 0.740234 27.6582V14.1055C0.740234 9.9043 1.94434 6.57324 4.35254 4.1123C6.76074 1.63379 10.0127 0.394531 14.1084 0.394531C18.1514 0.394531 21.3857 1.60742 23.8115 4.0332C26.2373 6.45898 27.4502 9.69336 27.4502 13.7363ZM7.91211 14.1055V27.4473C7.91211 29.9258 8.44824 31.8242 9.52051 33.1426C10.6104 34.4609 12.1836 35.1201 14.2402 35.1201C18.2656 35.1201 20.2783 32.6152 20.2783 27.6055V14.1055C20.2783 11.8203 19.7422 10.0625 18.6699 8.83203C17.6152 7.60156 16.1123 6.98633 14.1611 6.98633C12.2275 6.98633 10.6982 7.61914 9.57324 8.88477C8.46582 10.1504 7.91211 11.8906 7.91211 14.1055ZM41.3721 21.7783C41.3721 21.7783 41.3721 19.4756 41.3721 14.8701C43.0947 14.8174 44.4043 14.6152 45.3008 14.2637C46.7773 13.5957 47.5156 12.4268 47.5156 10.7568C47.5156 9.64941 47.1904 8.74414 46.54 8.04102C45.8896 7.33789 45.0459 6.98633 44.0088 6.98633C43.0068 6.98633 42.2334 7.27637 41.6885 7.85645C41.1611 8.43652 40.8184 9.35059 40.6602 10.5986H33.3828C33.5234 8.91113 33.7871 7.55762 34.1738 6.53809C34.5781 5.51855 35.2285 4.55176 36.125 3.6377C38.1816 1.47559 40.792 0.394531 43.9561 0.394531C47.0322 0.394531 49.5898 1.41406 51.6289 3.45312C53.6855 5.49219 54.7139 8.0498 54.7139 11.126C54.7139 12.6729 54.4414 14 53.8965 15.1074C53.3691 16.2148 52.5254 17.1816 51.3652 18.0078C55.4961 19.8887 57.5615 23.3252 57.5615 28.3174C57.5615 32.1846 56.2959 35.3838 53.7646 37.915C51.2334 40.4463 48.0342 41.7119 44.167 41.7119C40.335 41.7119 37.1357 40.5166 34.5693 38.126C32.0029 35.7354 30.6143 32.6592 30.4033 28.8975H37.6279C37.874 30.7959 38.5771 32.3076 39.7373 33.4326C40.915 34.5576 42.374 35.1201 44.1143 35.1201C45.9248 35.1201 47.4189 34.4961 48.5967 33.248C49.792 31.9824 50.3896 30.3916 50.3896 28.4756C50.3896 26.4365 49.6777 24.8105 48.2539 23.5977C46.8477 22.3848 44.9492 21.7783 42.5586 21.7783H41.3721Z" fill="#C53535"/>
</svg>
