<svg width="32" height="32" viewBox="0 0 32 32" fill="none" xmlns="http://www.w3.org/2000/svg">
<rect width="32" height="32" rx="6" fill="white"/>
<path d="M25.6425 15.9294C25.6425 10.4702 21.2432 6.04736 15.8212 6.04736C10.3956 6.04736 6 10.4702 6 15.9294C6 20.8606 9.59028 24.9493 14.2867 25.6899V18.7866H11.7927V15.9301H14.2867V13.7517C14.2867 11.2756 15.7507 9.90817 17.9948 9.90817C19.0696 9.90817 20.1948 10.1009 20.1948 10.1009V12.5325H18.9542C17.7364 12.5325 17.3558 13.2953 17.3558 14.0766V15.9294H20.0794L19.6417 18.786H17.3558V25.6892C22.0485 24.9487 25.6425 20.86 25.6425 15.9288V15.9294Z" fill="#C53535"/>
</svg>
