<svg width="60" height="60" viewBox="0 0 60 60" fill="none" xmlns="http://www.w3.org/2000/svg">
<circle cx="30" cy="30" r="29.25" transform="rotate(-180 30 30)" stroke="#C53535" stroke-width="1.5"/>
<path d="M45 32C45.5523 32 46 31.5523 46 31C46 30.4477 45.5523 30 45 30V32ZM16.2929 30.2929C15.9024 30.6834 15.9024 31.3166 16.2929 31.7071L22.6569 38.0711C23.0474 38.4616 23.6805 38.4616 24.0711 38.0711C24.4616 37.6805 24.4616 37.0474 24.0711 36.6569L18.4142 31L24.0711 25.3431C24.4616 24.9526 24.4616 24.3195 24.0711 23.9289C23.6805 23.5384 23.0474 23.5384 22.6569 23.9289L16.2929 30.2929ZM45 30L17 30V32L45 32V30Z" fill="#C53535"/>
</svg>
