<svg width="60" height="60" viewBox="0 0 60 60" fill="none" xmlns="http://www.w3.org/2000/svg">
<circle cx="30" cy="30" r="29.5" fill="#C53535" stroke="#001730"/>
<path d="M15 30C14.4477 30 14 30.4477 14 31C14 31.5523 14.4477 32 15 32V30ZM43.7071 31.7071C44.0976 31.3166 44.0976 30.6834 43.7071 30.2929L37.3431 23.9289C36.9526 23.5384 36.3195 23.5384 35.9289 23.9289C35.5384 24.3195 35.5384 24.9526 35.9289 25.3431L41.5858 31L35.9289 36.6569C35.5384 37.0474 35.5384 37.6805 35.9289 38.0711C36.3195 38.4616 36.9526 38.4616 37.3431 38.0711L43.7071 31.7071ZM15 32H43V30H15V32Z" fill="white"/>
</svg>
