<svg width="32" height="32" viewBox="0 0 32 32" fill="none" xmlns="http://www.w3.org/2000/svg">
<rect width="32" height="32" rx="6" fill="white"/>
<path d="M20.0942 12.8043C20.009 12.5836 19.8785 12.3831 19.7111 12.2159C19.5437 12.0487 19.3432 11.9184 19.1223 11.8334C18.8183 11.7208 18.4972 11.6613 18.173 11.6574C17.6338 11.6329 17.4722 11.6268 16.1064 11.6268C14.7406 11.6268 14.579 11.6329 14.0399 11.6574C13.7153 11.6612 13.3938 11.7207 13.0894 11.8334C12.8687 11.9186 12.6683 12.0491 12.5011 12.2165C12.3339 12.3839 12.2036 12.5845 12.1186 12.8053C12.006 13.1093 11.9464 13.4305 11.9426 13.7547C11.9181 14.2938 11.9119 14.4555 11.9119 15.8212C11.9119 17.187 11.9181 17.3487 11.9426 17.8878C11.9463 18.2123 12.0058 18.5338 12.1186 18.8382C12.2038 19.0589 12.3343 19.2594 12.5017 19.4266C12.6691 19.5938 12.8697 19.7241 13.0905 19.8091C13.3945 19.9217 13.7156 19.9812 14.0399 19.985C14.579 20.0096 14.7406 20.0147 16.1064 20.0147C17.4722 20.0147 17.6338 20.0096 18.173 19.984C18.4974 19.9806 18.8189 19.9215 19.1234 19.8091C19.3441 19.7239 19.5445 19.5933 19.7117 19.426C19.8789 19.2586 20.0092 19.058 20.0942 18.8372C20.2068 18.5331 20.2664 18.212 20.2702 17.8878C20.2948 17.3487 20.2999 17.187 20.2999 15.8212C20.2999 14.4555 20.2948 14.2938 20.2692 13.7547C20.2658 13.4302 20.2066 13.1087 20.0942 12.8043V12.8043ZM16.1064 18.4484C15.5868 18.4484 15.0789 18.2943 14.6468 18.0057C14.2148 17.717 13.878 17.3067 13.6792 16.8266C13.4804 16.3466 13.4283 15.8183 13.5297 15.3087C13.6311 14.7991 13.8813 14.331 14.2487 13.9635C14.6161 13.5961 15.0842 13.3459 15.5939 13.2445C16.1035 13.1432 16.6317 13.1952 17.1118 13.394C17.5918 13.5929 18.0021 13.9296 18.2908 14.3617C18.5795 14.7937 18.7336 15.3016 18.7336 15.8212C18.7336 16.518 18.4568 17.1862 17.9641 17.6789C17.4714 18.1716 16.8032 18.4484 16.1064 18.4484ZM18.8369 13.7046C18.7155 13.7046 18.5968 13.6686 18.4959 13.6011C18.3949 13.5337 18.3163 13.4378 18.2698 13.3256C18.2234 13.2135 18.2112 13.0901 18.2349 12.971C18.2586 12.8519 18.317 12.7425 18.4029 12.6567C18.4887 12.5708 18.5981 12.5124 18.7172 12.4887C18.8362 12.465 18.9597 12.4772 19.0718 12.5236C19.184 12.5701 19.2798 12.6488 19.3473 12.7497C19.4147 12.8507 19.4507 12.9693 19.4507 13.0907C19.4507 13.2535 19.3861 13.4097 19.271 13.5248C19.1558 13.6399 18.9997 13.7046 18.8369 13.7046V13.7046ZM17.8118 15.8212C17.8118 16.1585 17.7118 16.4883 17.5244 16.7687C17.337 17.0492 17.0707 17.2678 16.759 17.3968C16.4474 17.5259 16.1045 17.5597 15.7737 17.4939C15.4429 17.4281 15.139 17.2657 14.9005 17.0272C14.662 16.7886 14.4996 16.4848 14.4338 16.154C14.368 15.8231 14.4017 15.4802 14.5308 15.1686C14.6599 14.857 14.8785 14.5906 15.1589 14.4032C15.4394 14.2158 15.7691 14.1158 16.1064 14.1158C16.5587 14.1158 16.9925 14.2955 17.3123 14.6153C17.6321 14.9352 17.8118 15.3689 17.8118 15.8212V15.8212ZM16.1064 6C14.1639 6 12.2651 6.57601 10.65 7.65518C9.03492 8.73435 7.7761 10.2682 7.03276 12.0628C6.28941 13.8574 6.09492 15.8321 6.47387 17.7373C6.85283 19.6424 7.78821 21.3924 9.16174 22.7659C10.5353 24.1394 12.2852 25.0748 14.1904 25.4538C16.0955 25.8327 18.0702 25.6382 19.8648 24.8949C21.6594 24.1515 23.1933 22.8927 24.2725 21.2776C25.3516 19.6625 25.9276 17.7637 25.9276 15.8212C25.9276 13.2165 24.8929 10.7184 23.0511 8.87658C21.2092 7.03474 18.7112 6 16.1064 6V6ZM21.1909 17.9297C21.1823 18.3542 21.1017 18.7742 20.9526 19.1717C20.8212 19.5115 20.6203 19.82 20.3627 20.0776C20.1051 20.3351 19.7966 20.536 19.4569 20.6674C19.0597 20.8164 18.6401 20.897 18.2159 20.9058C17.6696 20.9303 17.4957 20.9365 16.1064 20.9365C14.7171 20.9365 14.5432 20.9303 13.9969 20.9058C13.5727 20.897 13.1531 20.8164 12.7559 20.6674C12.4162 20.536 12.1077 20.3351 11.8501 20.0776C11.5925 19.82 11.3916 19.5115 11.2602 19.1717C11.1112 18.7745 11.0306 18.3549 11.0219 17.9308C10.9973 17.3845 10.9912 17.2105 10.9912 15.8212C10.9912 14.4319 10.9973 14.258 11.0219 13.7117C11.0303 13.2876 11.1106 12.868 11.2592 12.4708C11.3906 12.1307 11.5916 11.822 11.8494 11.5642C12.1071 11.3064 12.4159 11.1054 12.7559 10.9741C13.1532 10.8254 13.5728 10.7452 13.9969 10.7367C14.5432 10.7122 14.7171 10.706 16.1064 10.706C17.4957 10.706 17.6696 10.7122 18.2159 10.7367C18.64 10.7452 19.0596 10.8254 19.4569 10.9741C19.7967 11.1055 20.1053 11.3066 20.3629 11.5644C20.6205 11.8221 20.8213 12.1308 20.9526 12.4708C21.1016 12.868 21.1822 13.2876 21.1909 13.7117C21.2155 14.258 21.2216 14.4319 21.2216 15.8212C21.2216 17.2105 21.2155 17.3845 21.1909 17.9308V17.9297Z" fill="#C53535"/>
</svg>
