<svg width="32" height="32" viewBox="0 0 32 32" fill="none" xmlns="http://www.w3.org/2000/svg">
<rect width="32" height="32" rx="6" fill="white"/>
<path d="M23.4578 6C24.0365 6 24.5916 6.22991 25.0008 6.63916C25.4101 7.0484 25.64 7.60346 25.64 8.18222V23.4578C25.64 24.0365 25.4101 24.5916 25.0008 25.0008C24.5916 25.4101 24.0365 25.64 23.4578 25.64H8.18222C7.60346 25.64 7.0484 25.4101 6.63916 25.0008C6.22991 24.5916 6 24.0365 6 23.4578V8.18222C6 7.60346 6.22991 7.0484 6.63916 6.63916C7.0484 6.22991 7.60346 6 8.18222 6H23.4578ZM22.9122 22.9122V17.1293C22.9122 16.186 22.5375 15.2812 21.8704 14.6141C21.2033 13.9471 20.2986 13.5723 19.3552 13.5723C18.4278 13.5723 17.3476 14.1397 16.8238 14.9908V13.7796H13.7796V22.9122H16.8238V17.533C16.8238 16.6929 17.5003 16.0055 18.3405 16.0055C18.7456 16.0055 19.1341 16.1664 19.4206 16.4529C19.7071 16.7394 19.868 17.1279 19.868 17.533V22.9122H22.9122ZM10.2335 12.0666C10.7197 12.0666 11.1859 11.8735 11.5297 11.5297C11.8735 11.1859 12.0666 10.7197 12.0666 10.2335C12.0666 9.21878 11.2482 8.38953 10.2335 8.38953C9.74446 8.38953 9.27543 8.58381 8.92962 8.92962C8.58381 9.27543 8.38953 9.74446 8.38953 10.2335C8.38953 11.2482 9.21878 12.0666 10.2335 12.0666ZM11.7502 22.9122V13.7796H8.72778V22.9122H11.7502Z" fill="#C53535"/>
</svg>
