<svg width="32" height="32" viewBox="0 0 32 32" fill="none" xmlns="http://www.w3.org/2000/svg">
<rect width="32" height="32" rx="6" fill="white"/>
<path d="M16.3913 6C10.9677 6 6.57007 10.3976 6.57007 15.8212C6.57007 21.2449 10.9677 25.6425 16.3913 25.6425C21.8149 25.6425 26.2126 21.2449 26.2126 15.8212C26.2126 10.3976 21.8149 6 16.3913 6ZM21.1112 13.4032C21.1178 13.5062 21.1178 13.6137 21.1178 13.7189C21.1178 16.9371 18.6669 20.6442 14.1881 20.6442C12.807 20.6442 11.5267 20.243 10.4481 19.5524C10.6454 19.5744 10.834 19.5831 11.0357 19.5831C12.1756 19.5831 13.2235 19.1973 14.0588 18.544C12.989 18.5221 12.0901 17.8206 11.7832 16.856C12.1581 16.9108 12.4957 16.9108 12.8815 16.8121C12.3307 16.7002 11.8356 16.4011 11.4803 15.9655C11.125 15.5299 10.9315 14.9847 10.9326 14.4226V14.3919C11.2549 14.5739 11.6341 14.6857 12.0309 14.701C11.6974 14.4787 11.4238 14.1775 11.2345 13.8242C11.0452 13.4708 10.9461 13.0762 10.9458 12.6754C10.9458 12.2216 11.0642 11.8072 11.2768 11.4477C11.8882 12.2004 12.6512 12.816 13.5161 13.2545C14.381 13.693 15.3285 13.9446 16.297 13.9929C15.9529 12.3378 17.1893 10.9983 18.6756 10.9983C19.3771 10.9983 20.0085 11.2921 20.4535 11.7656C21.0038 11.6626 21.5299 11.4565 21.9991 11.1803C21.8171 11.7437 21.4357 12.2194 20.9293 12.5197C21.4203 12.4671 21.8938 12.3312 22.3323 12.1405C22.0013 12.6271 21.5869 13.059 21.1112 13.4032V13.4032Z" fill="#C53535"/>
</svg>
