<svg width="22" height="21" viewBox="0 0 22 21" fill="none" xmlns="http://www.w3.org/2000/svg">
<path d="M4.42444 9.08833C6.18444 12.39 9.02 15.085 12.4789 16.7767L15.1678 14.21C15.4978 13.895 15.9867 13.79 16.4144 13.93C17.7833 14.3617 19.2622 14.595 20.7778 14.595C21.45 14.595 22 15.12 22 15.7617V19.8333C22 20.475 21.45 21 20.7778 21C9.30111 21 0 12.1217 0 1.16667C0 0.525 0.55 0 1.22222 0H5.5C6.17222 0 6.72222 0.525 6.72222 1.16667C6.72222 2.625 6.96667 4.025 7.41889 5.33167C7.55333 5.74 7.45555 6.195 7.11333 6.52167L4.42444 9.08833Z" fill="white"/>
</svg>
