<svg width="28" height="22" viewBox="0 0 28 22" fill="none" xmlns="http://www.w3.org/2000/svg">
<path d="M2.728 22C1.9778 22 1.33581 21.731 0.802032 21.1929C0.267344 20.6539 0 20.0063 0 19.25V2.75C0 1.99375 0.267344 1.34658 0.802032 0.8085C1.33581 0.2695 1.9778 0 2.728 0H24.552C25.3022 0 25.9446 0.2695 26.4793 0.8085C27.0131 1.34658 27.28 1.99375 27.28 2.75V19.25C27.28 20.0063 27.0131 20.6539 26.4793 21.1929C25.9446 21.731 25.3022 22 24.552 22H2.728ZM13.64 12.1344C13.7537 12.1344 13.8728 12.117 13.9974 12.0821C14.1229 12.0482 14.2424 11.9969 14.3561 11.9281L24.0064 5.84375C24.1883 5.72917 24.3247 5.58617 24.4156 5.41475C24.5065 5.24242 24.552 5.05312 24.552 4.84688C24.552 4.38854 24.3588 4.04479 23.9723 3.81563C23.5858 3.58646 23.188 3.59792 22.7788 3.85L13.64 9.625L4.5012 3.85C4.092 3.59792 3.69417 3.59196 3.3077 3.83213C2.92123 4.07321 2.728 4.41146 2.728 4.84688C2.728 5.07604 2.77347 5.27633 2.8644 5.44775C2.95533 5.62008 3.09173 5.75208 3.2736 5.84375L12.9239 11.9281C13.0376 11.9969 13.1571 12.0482 13.2826 12.0821C13.4072 12.117 13.5263 12.1344 13.64 12.1344Z" fill="white"/>
</svg>
