<svg width="27" height="33" viewBox="0 0 27 33" fill="none" xmlns="http://www.w3.org/2000/svg">
<path d="M13.5 16.5C14.4281 16.5 15.2229 16.1766 15.8844 15.5298C16.5448 14.8841 16.875 14.1075 16.875 13.2C16.875 12.2925 16.5448 11.5153 15.8844 10.8685C15.2229 10.2228 14.4281 9.9 13.5 9.9C12.5719 9.9 11.7776 10.2228 11.1173 10.8685C10.4558 11.5153 10.125 12.2925 10.125 13.2C10.125 14.1075 10.4558 14.8841 11.1173 15.5298C11.7776 16.1766 12.5719 16.5 13.5 16.5ZM13.5 33C8.97188 29.2325 5.59012 25.7328 3.35475 22.501C1.11825 19.2703 0 16.28 0 13.53C0 9.405 1.35731 6.11875 4.07194 3.67125C6.78544 1.22375 9.92813 0 13.5 0C17.0719 0 20.2146 1.22375 22.9281 3.67125C25.6427 6.11875 27 9.405 27 13.53C27 16.28 25.8823 19.2703 23.6469 22.501C21.4104 25.7328 18.0281 29.2325 13.5 33Z" fill="white"/>
</svg>
